<svg width="30" height="23" viewBox="0 0 30 23" fill="none" xmlns="http://www.w3.org/2000/svg">
<path d="M23.2517 2.02798L15.0874 8.24995L6.73655 2.02798V2.02966L6.74664 2.03807V10.7505L14.9933 17.107L23.2517 10.996V2.02798Z" fill="white"/>
<path d="M25.3957 0.514525L23.2517 2.02798V10.996L29.9983 5.93773V2.89065C29.9983 2.89065 29.1794 -1.46137 25.3957 0.514525Z" fill="white"/>
<path d="M23.2517 10.996V22.6278H28.4227C28.4227 22.6278 29.8941 22.4798 30 20.8419V5.93773L23.2517 10.996Z" fill="white"/>
<path d="M6.74664 22.6378V10.7505L6.73655 10.7421L6.74664 22.6378Z" fill="white"/>
<path d="M6.73655 2.02966L4.60426 0.524618C0.820628 -1.45128 0 2.89906 0 2.89906V5.94614L6.73655 10.7421V2.02966Z" fill="white"/>
<path d="M6.73655 2.02966V10.7421L6.74664 10.7505V2.03806L6.73655 2.02966Z" fill="white"/>
<path d="M0 5.94782V20.852C0.10426 22.4915 1.57735 22.6378 1.57735 22.6378H6.74832L6.73655 10.7421L0 5.94782Z" fill="white"/>
</svg>
